# xmcd CD database file
#
# Track frame offsets:
#	150
#	119662
#	215325
#
# Disc length: 4535 seconds
#
# Revision: 0
# Processed by: cddbd v1.5PL3 Copyright (c) Steve Scherf et al.
# Submitted via: CDex 1.51
#
DISCID=2811b503
DTITLE=Peter Hübner - Medizinische Resonanz Therapie Musik
DYEAR=1988
DGENRE=New Age
TTITLE0=Entspannung A
TTITLE1=Entspannung B
TTITLE2=Entspannung C
EXTD=YEAR: 1988
EXTT0=
EXTT1=
EXTT2=
PLAYORDER=
